<?xml version="1.0" encoding="utf-8"?>
<!-- Generator: Adobe Illustrator 23.0.5, SVG Export Plug-In . SVG Version: 6.00 Build 0)  -->
<svg version="1.1" id="Capa_1" xmlns="http://www.w3.org/2000/svg" xmlns:xlink="http://www.w3.org/1999/xlink" x="0px" y="0px"
	 viewBox="0 0 373.1 373.1" style="enable-background:new 0 0 373.1 373.1;" xml:space="preserve">
<style type="text/css">
	.st0{fill:#FFFFFF;}
</style>
<g>
	<g>
		<path class="st0" d="M266.7,234.7h-17l-5.9-5.9c20.9-24.2,33.5-55.7,33.5-90.1C277.3,62.1,215.3,0,138.7,0S0,62.1,0,138.7
			s62.1,138.7,138.7,138.7c34.5,0,65.9-12.6,90.1-33.4l5.9,5.9v16.9l106.7,106.5l31.8-31.8L266.7,234.7z M138.7,234.7
			c-53,0-96-43-96-96s43-96,96-96s96,43,96,96S191.7,234.7,138.7,234.7z"/>
	</g>
</g>
</svg>
